<svg xmlns="http://www.w3.org/2000/svg" width="600" height="400" viewBox="0 0 600 400">
  <defs>
    <linearGradient id="bgGrad" x1="0%" y1="0%" x2="100%" y2="100%">
      <stop offset="0%" style="stop-color:#f5a623;stop-opacity:1"/>
      <stop offset="100%" style="stop-color:#e08b2e;stop-opacity:1"/>
    </linearGradient>
  </defs>
  <rect width="600" height="400" fill="url(#bgGrad)"/>
  <!-- Light bulb -->
  <circle cx="300" cy="170" r="60" fill="none" stroke="rgba(255,255,255,0.9)" stroke-width="3"/>
  <path d="M270 170 C270 140, 330 140, 330 170 C330 195, 315 210, 315 230 L285 230 C285 210, 270 195, 270 170Z" fill="rgba(255,255,255,0.3)" stroke="rgba(255,255,255,0.9)" stroke-width="2.5"/>
  <line x1="285" y1="240" x2="315" y2="240" stroke="rgba(255,255,255,0.9)" stroke-width="2.5"/>
  <line x1="287" y1="250" x2="313" y2="250" stroke="rgba(255,255,255,0.9)" stroke-width="2.5"/>
  <line x1="290" y1="260" x2="310" y2="260" stroke="rgba(255,255,255,0.9)" stroke-width="2.5"/>
  <!-- Rays -->
  <line x1="300" y1="90" x2="300" y2="70" stroke="rgba(255,255,255,0.6)" stroke-width="2" stroke-linecap="round"/>
  <line x1="360" y1="110" x2="375" y2="95" stroke="rgba(255,255,255,0.6)" stroke-width="2" stroke-linecap="round"/>
  <line x1="240" y1="110" x2="225" y2="95" stroke="rgba(255,255,255,0.6)" stroke-width="2" stroke-linecap="round"/>
  <line x1="380" y1="170" x2="400" y2="170" stroke="rgba(255,255,255,0.6)" stroke-width="2" stroke-linecap="round"/>
  <line x1="220" y1="170" x2="200" y2="170" stroke="rgba(255,255,255,0.6)" stroke-width="2" stroke-linecap="round"/>
  <text x="300" y="340" font-family="Arial, sans-serif" font-size="14" fill="rgba(255,255,255,0.7)" text-anchor="middle" letter-spacing="3">ENERGÍA ELÉCTRICA</text>
</svg>
